HIERARCHY
ROOT Hips
{
	OFFSET 0.000000 0.997939 0.000000
	CHANNELS 6 Xposition Yposition Zposition Xrotation Yrotation Zrotation
	JOINT LeftUpLeg
	{
		OFFSET 0.087263 -0.053932 -0.004454
		CHANNELS 3 Xrotation Yrotation Zrotation
		JOINT LeftLeg
		{
			OFFSET 0.002031 -0.409957 -0.022404
			CHANNELS 3 Xrotation Yrotation Zrotation
			JOINT LeftFoot
			{
				OFFSET -0.002031 -0.418117 -0.043411
				CHANNELS 3 Xrotation Yrotation Zrotation
				JOINT LeftToeBase
				{
					OFFSET 0.020230 -0.095673 0.159176
					CHANNELS 3 Xrotation Yrotation Zrotation
					JOINT LeftToe_End
					{
						OFFSET 0.009195 0.005873 0.069937
						CHANNELS 3 Xrotation Yrotation Zrotation
						End Site
						{
							OFFSET 0 0 0
						}
					}
				}
			}
		}
	}
	JOINT RightUpLeg
	{
		OFFSET -0.087263 -0.053932 -0.004589
		CHANNELS 3 Xrotation Yrotation Zrotation
		JOINT RightLeg
		{
			OFFSET -0.002031 -0.409957 -0.021834
			CHANNELS 3 Xrotation Yrotation Zrotation
			JOINT RightFoot
			{
				OFFSET 0.002031 -0.418120 -0.036866
				CHANNELS 3 Xrotation Yrotation Zrotation
				JOINT RightToeBase
				{
					OFFSET -0.020229 -0.095665 0.153627
					CHANNELS 3 Xrotation Yrotation Zrotation
					JOINT RightToe_End
					{
						OFFSET -0.009195 0.005876 0.070480
						CHANNELS 3 Xrotation Yrotation Zrotation
						End Site
						{
							OFFSET 0 0 0
						}
					}
				}
			}
		}
	}
	JOINT Spine
	{
		OFFSET 0.000000 0.096944 -0.011097
		CHANNELS 3 Xrotation Yrotation Zrotation
		JOINT Spine1
		{
			OFFSET 0.000000 0.113101 -0.012947
			CHANNELS 3 Xrotation Yrotation Zrotation
			JOINT Spine2
			{
				OFFSET 0.000000 0.129259 -0.014796
				CHANNELS 3 Xrotation Yrotation Zrotation
				JOINT Neck
				{
					OFFSET 0.000000 0.145416 -0.016646
					CHANNELS 3 Xrotation Yrotation Zrotation
					JOINT Head
					{
						OFFSET 0.000000 0.069443 0.019825
						CHANNELS 3 Xrotation Yrotation Zrotation
						End Site
						{
							OFFSET 0 0 0
						}
					}
				}
				JOINT LeftShoulder
				{
					OFFSET 0.066813 0.127861 -0.016220
					CHANNELS 3 Xrotation Yrotation Zrotation
					JOINT LeftArm
					{
						OFFSET 0.135856 -0.034461 0.000852
						CHANNELS 3 Xrotation Yrotation Zrotation
						JOINT LeftForeArm
						{
							OFFSET 0.273303 0.000000 -0.000000
							CHANNELS 3 Xrotation Yrotation Zrotation
							JOINT LeftHand
							{
								OFFSET 0.208888 0.000000 -0.000000
								CHANNELS 3 Xrotation Yrotation Zrotation
								End Site
								{
									OFFSET 0 0 0
								}
							}
						}
					}
				}
				JOINT RightShoulder
				{
					OFFSET -0.066813 0.127861 -0.017072
					CHANNELS 3 Xrotation Yrotation Zrotation
					JOINT RightArm
					{
						OFFSET -0.135856 -0.034462 -0.000852
						CHANNELS 3 Xrotation Yrotation Zrotation
						JOINT RightForeArm
						{
							OFFSET -0.273182 0.000000 0.000000
							CHANNELS 3 Xrotation Yrotation Zrotation
							JOINT RightHand
							{
								OFFSET -0.208898 0.000000 0.000000
								CHANNELS 3 Xrotation Yrotation Zrotation
								End Site
								{
									OFFSET 0 0 0
								}
							}
						}
					}
				}
			}
		}
	}
}
MOTION
Frames: 14
Frame Time: 1.00000000
-0.007208 0.905028 0.000003 87.092850 -80.797363 83.099541 -44.529778 3.450864 26.842754 38.477791 -7.625742 1.748120 -2.927574 0.641548 -15.773692 -0.011867 0.000006 -0.014217 0.000001 0.000001 0.000001 -45.629444 -2.690551 -7.481707 51.004383 -1.558843 -3.453899 -8.592392 -1.343195 11.214314 -1.466083 -0.026002 0.956421 0.000000 0.000002 0.000001 86.721451 -18.675108 8.395848 5.237593 -1.910124 -0.603161 5.254910 -1.853980 -0.621391 4.223072 11.043645 -0.234604 13.310558 10.729104 -2.063253 1.602074 -14.281262 2.032469 -48.678200 -59.026939 -55.729683 -179.998657 -86.743752 -179.999268 -6.701452 -0.261024 24.834852 1.476297 9.979598 -8.416314 -19.202921 0.075398 20.940155 -179.999939 47.849922 -179.999985 -37.923286 32.073021 -23.163200 
0.023234 0.973343 -0.006478 4.039303 -38.998646 9.333764 -10.161222 3.498293 2.100485 20.125019 -9.782497 2.645216 -13.207799 -0.470987 -9.100930 -0.000000 0.000003 -0.000001 0.000000 -0.000011 0.000002 -33.604378 -6.391604 -17.659019 7.941438 -9.604095 -5.023082 1.320005 -18.533443 -2.953930 -0.000004 -0.000004 -0.000002 0.000001 -0.000001 0.000003 4.386505 -1.373231 -6.102817 4.099054 0.419178 -1.445335 4.101590 0.409707 -1.437298 3.094149 4.297809 -0.286098 3.078102 4.306387 -0.344046 0.574866 -3.767543 -8.318414 11.475235 -28.967268 -45.574718 -0.000032 -51.862644 -0.000024 -11.125930 27.458879 -8.684316 0.627900 6.645561 7.355556 9.879156 21.270304 59.757793 -0.000005 41.246445 0.000015 -28.502892 8.401023 -2.984643 
0.035833 0.960234 -0.015334 16.255400 -50.658073 11.603237 -10.433728 3.227557 -2.005207 28.251345 0.559023 0.492591 -23.035219 0.382310 -1.755496 -0.000001 -0.000022 -0.000003 0.000000 -0.000007 0.000003 -51.581635 -1.223582 1.868246 29.718344 -7.122170 -0.122261 6.222881 -4.270438 -0.849053 -0.000006 0.000000 0.000010 0.000000 -0.000007 -0.000004 6.057363 -6.292775 -1.379462 5.402344 -3.966205 1.330335 5.428158 -3.899889 1.405212 2.303064 7.466647 2.371076 2.371942 7.454786 2.340541 0.521977 -0.892855 -6.662188 -14.823124 -31.653555 -57.091930 -0.000024 -37.818451 -0.000036 15.660950 10.948674 11.769745 0.570735 7.518903 10.173125 6.898498 -10.319028 54.805328 0.000008 24.754837 0.000020 -20.819025 -4.088757 -10.213076 
0.026078 0.990700 -0.003688 8.253949 -51.362114 5.164218 -36.547314 -0.122594 6.645874 27.424129 -0.268823 0.749858 -1.105295 0.422117 -7.841782 0.000003 -0.000001 -0.000001 0.000004 -0.000005 -0.000002 -11.910750 -11.501641 0.680261 14.592733 -4.537593 1.833324 -7.306934 -0.621852 0.676115 -0.240876 0.000723 -0.176381 0.000000 -0.000008 -0.000003 3.334481 1.137170 4.877606 3.012976 0.146951 1.450986 3.013093 0.164531 1.448335 3.193091 4.950802 -0.055222 3.224241 4.931007 -0.080927 0.583528 -4.373605 -10.302885 5.874978 -50.519726 -57.995083 -0.000094 -62.437927 -0.000094 5.994123 6.104158 18.341717 0.617941 6.405226 8.536080 3.743490 33.197098 57.168797 0.000017 43.916641 -0.000018 4.992012 2.131513 -7.475330 
0.020352 1.002445 -0.010760 6.368779 -66.850983 4.363257 -17.211359 1.522830 5.425465 14.982302 19.021950 2.049456 4.843915 10.056447 -29.691010 0.000005 0.000011 -0.000004 0.000001 0.000006 0.000002 -27.595974 -7.427492 -14.149971 37.998680 -1.668521 -1.409264 2.758985 2.703778 4.711514 0.005707 0.000006 -0.000005 -0.000001 -0.000003 -0.000001 3.488609 1.504207 -1.777043 3.266429 1.484982 -0.142575 3.269739 1.476861 -0.123102 4.391736 7.008594 -0.540244 4.398511 7.000873 -0.618873 0.580586 -2.838778 -8.187337 -33.021839 9.289803 -38.654255 -0.000017 -43.945919 -0.000032 -57.241978 -2.829739 28.356293 0.646967 5.690736 6.691620 -2.079331 18.117731 66.764503 -0.000003 30.941545 0.000030 -13.163711 2.532685 -0.167393 
0.021452 0.995188 0.001646 16.889915 -68.312431 14.410242 -34.032017 3.853650 20.983938 33.817066 1.233425 3.701155 9.662445 -0.436040 -13.972000 0.000010 -0.000002 -0.000003 0.000001 -0.000011 0.000004 -18.881594 -13.138504 -8.408946 15.712804 6.813486 0.674372 -2.879771 -0.521979 7.070689 -0.000029 -0.000026 0.000001 -0.000001 -0.000001 0.000002 2.831263 -0.785589 3.733809 2.591142 -1.111490 0.925532 2.607546 -1.078600 0.912865 3.888334 8.106771 -0.649439 3.971045 8.063650 -0.717420 0.593758 -4.858138 -9.236858 -3.033221 -51.626011 -64.203369 -0.000057 -59.341560 -0.000051 37.448238 24.834126 6.689627 0.637811 4.833269 5.581430 26.962208 26.374166 39.629616 0.000002 65.774765 0.000007 79.440140 -8.549915 -65.491501 
0.020964 0.991322 -0.005099 34.267651 -68.863586 27.448988 -31.046448 2.252950 10.628197 20.518789 -1.398616 2.610533 -0.493458 0.245903 -11.595894 -0.678394 -0.005334 0.450514 0.000001 0.000001 0.000001 -37.440052 -9.061280 -1.717848 63.719921 -10.314763 3.563132 2.525015 -13.248687 12.237164 0.000001 -0.000006 0.000007 -0.000002 0.000000 0.000003 5.014474 5.667215 -3.634498 4.362762 5.206723 -3.167093 4.316615 5.226277 -3.202065 8.773618 3.401560 -3.865012 8.799508 3.424179 -3.781882 0.541791 -1.487275 -6.966132 -34.052631 9.851451 -28.922007 -0.000026 -14.684364 -0.000023 -36.097294 9.187134 30.092089 0.728089 7.441584 5.683347 2.130664 21.984831 63.502953 0.000003 42.819096 0.000022 -10.151882 7.868268 -4.693739 
0.021810 0.992475 -0.000741 22.611353 -55.885376 19.841103 -29.081766 13.194710 6.468332 63.277424 2.660152 -2.562809 9.201561 -1.035495 -20.382381 0.000015 0.000003 -0.000002 0.000004 -0.000002 -0.000000 -29.559696 -6.750677 -4.492043 24.572525 2.981287 -3.287336 -5.425283 -0.301487 2.604870 0.000004 -0.000013 0.000007 -0.000001 0.000007 -0.000001 3.502147 -6.281179 4.614774 2.760074 -5.625702 2.409841 2.670854 -5.652508 2.452261 8.027387 -1.270414 3.862851 8.077814 -1.273007 3.753552 0.835479 -8.912007 -4.523468 -37.020203 -65.187477 -75.842926 -0.000047 -56.553303 -0.000030 -26.244617 -1.744989 -0.275317 0.587067 3.082981 9.236030 4.300752 4.444151 57.621277 0.000011 35.046093 0.000016 -14.405225 3.397396 -3.697162 
0.027101 0.996158 -0.004490 31.437410 -63.318687 24.456272 -33.968708 4.188212 10.551243 17.642197 -6.612098 0.436855 -0.690323 0.505913 -9.973019 0.000002 -0.000017 -0.000005 -0.000002 -0.000007 0.000004 -34.754696 -7.817480 -10.290516 38.591030 -10.416827 1.267133 5.521247 -11.789058 11.378937 -0.450547 -0.006590 0.580845 -0.000001 -0.000000 -0.000001 5.390655 2.876027 -1.202431 4.903615 2.627934 -0.876309 4.895365 2.648083 -0.864681 6.341166 6.199479 -2.128643 6.358380 6.169803 -2.169094 0.592194 -3.786197 -8.275514 10.041349 -60.796940 -42.268867 -0.000076 -62.192566 -0.000059 -18.935432 -10.086982 20.673954 0.677715 7.278356 7.007213 -0.850876 30.413181 57.671650 -0.000024 70.279877 0.000005 -57.541241 31.838127 27.841187 
0.010701 0.807135 0.001080 44.330009 -70.282967 42.055832 -62.820316 -0.992864 18.087471 74.907867 -5.887337 1.039903 -26.132946 3.927835 -15.078582 0.000006 0.000038 0.000003 -0.000003 0.000002 -0.000003 -63.339813 0.135534 -15.729454 77.404137 -9.884557 1.319412 -19.222984 -8.680397 5.811626 -0.886944 -0.017717 1.096165 -0.000001 -0.000003 -0.000002 8.507253 1.225527 1.208559 7.872066 0.492539 -0.320656 7.867555 0.559872 -0.325534 3.492389 7.207812 -0.485672 3.545676 7.173523 -0.649258 1.187336 -11.203720 -0.995101 -57.749756 -57.559986 -64.968506 -0.000148 -68.413879 -0.000107 -7.223760 -29.638969 17.547453 1.086093 9.601514 0.475241 -26.912254 21.851160 25.510668 -179.999908 68.838028 -179.999985 -27.145676 25.859013 -15.458425 
0.011905 0.453839 0.001139 58.596634 -64.764366 54.837395 -118.326675 -22.397318 12.214630 130.032379 -2.926516 0.237433 -24.379070 3.692125 -14.251973 0.000002 -0.000006 -0.000009 -0.000001 -0.000006 0.000002 -117.692230 18.424646 -7.350204 133.879181 -8.196389 1.218869 -27.968508 -9.135550 1.530818 -0.055675 -0.000043 0.064934 0.000001 0.000003 -0.000001 11.685972 1.276159 -0.844444 11.005677 0.459643 -1.218829 11.001238 0.583478 -1.223260 4.369799 6.778880 -1.583447 4.425456 6.686713 -1.841296 1.569233 -13.228743 1.656296 -32.099979 -24.771664 -50.408363 -179.999512 -80.970688 -179.999771 -27.841032 -3.800778 4.936581 1.349097 12.513318 0.164129 -43.403534 39.921165 51.124989 -179.999863 75.306847 179.999939 -36.906151 -8.088360 -17.197197 
0.002109 0.880756 0.000141 45.619743 -75.104668 41.054661 -50.985332 -5.135291 15.891539 72.031067 -8.431501 2.859558 -6.666227 0.485926 -10.783516 -17.749525 0.091772 -0.338997 0.000000 -0.000011 0.000002 -45.723492 -3.748103 -4.852954 60.973671 -8.544028 -1.029083 -21.092600 -1.896051 9.284093 -0.110639 -0.000476 0.143010 -0.000002 0.000002 -0.000001 7.187814 2.024782 2.650600 6.418523 1.282323 0.453051 6.406766 1.348188 0.432107 7.507549 4.940999 -1.307434 7.542366 4.884735 -1.322113 0.549023 -2.398998 -5.544752 1.946265 -43.608551 -59.734097 -0.000081 -56.122925 -0.000073 -3.034222 -44.848850 21.304619 0.647978 5.748294 6.582407 6.236471 56.122627 48.292397 -0.000026 67.934952 0.000023 -28.888151 45.290710 1.742567 
-0.020090 0.973215 -0.005179 17.458334 9.525039 -0.096365 -39.433002 -3.776599 5.947182 22.138449 -0.097522 4.727166 2.080941 -1.207184 -9.036530 0.000005 -0.000002 -0.000001 0.000000 0.000002 0.000003 -36.849289 -4.266821 -10.321749 21.271191 -3.354103 -4.259755 -1.463168 -0.582570 9.896573 -0.000017 -0.000001 -0.000004 0.000002 -0.000002 -0.000003 4.949379 -0.238209 1.002466 40.933563 -63.861858 63.974613 4.461481 -0.453102 0.476466 7.266603 -3.502285 -0.021162 7.264259 -3.509397 0.011167 0.601131 -3.981982 -6.930608 -8.515978 -26.973619 -59.572460 -0.000039 -31.553104 -0.000040 -28.255014 0.489635 22.560087 0.623726 4.715233 6.503023 12.057198 15.072660 57.687916 -0.000059 77.800652 0.000019 -10.772029 24.717844 -28.061111 
-0.016270 0.990088 -0.007088 28.325312 39.603821 -20.864359 -39.132442 -1.900013 4.283054 15.175029 -6.587642 3.210394 3.040956 0.039509 -3.174899 0.000001 -0.000004 -0.000010 -0.000001 -0.000002 -0.000003 -16.360970 -1.116639 -5.365337 63.957119 5.665661 -8.755380 40.304199 4.650518 14.342486 0.000011 0.000005 0.000013 -0.000001 -0.000004 0.000001 4.315625 1.808065 -2.898343 79.784798 -55.076763 103.768532 4.068172 1.019377 -0.757124 5.020249 -5.590862 0.739300 5.065719 -5.540568 0.833356 0.573066 -2.380699 -8.017434 0.949723 -37.149696 -54.688591 -0.000047 -44.154514 -0.000047 -20.823677 0.618278 23.304314 0.611631 4.486926 7.116886 13.171918 16.345959 63.208275 0.000023 50.129353 0.000004 -37.344521 18.107983 -16.956383 
